<svg width="400" height="120" viewBox="0 0 400 120" xmlns="http://www.w3.org/2000/svg">
    <g fill-rule="nonzero" fill="none">
        <g fill="#28333A">
            <path d="M175.112 47.78v15.336h-5.471V47.78c0-4.68-3.818-8.538-8.585-8.538-4.707 0-8.585 3.865-8.585 8.538v15.336H147V34.562h5.471v2.743c2.482-1.872 5.471-3.305 8.585-3.305 3.753 0 7.314 1.374 9.987 3.989 2.607 2.62 4.069 6.055 4.069 9.79ZM186.156 50.3V34h5.5v16.3c0 4.167 3.58 7.593 8.054 7.593 4.414 0 8.054-3.42 8.054-7.592V34h5.5v16.3c0 3.485-1.47 6.717-4.03 9.145-2.562 2.427-5.944 3.671-9.524 3.671-3.647 0-7.035-1.244-9.59-3.67-2.554-2.43-3.964-5.661-3.964-9.145ZM249.03 34.633h5.398v28.854h-5.398v-3.34c-2.695 2.27-6.086 3.973-9.665 3.973-4.015 0-7.782-1.513-10.666-4.35-2.826-2.896-4.391-6.68-4.391-10.71 0-4.03 1.572-7.813 4.391-10.71 2.884-2.837 6.651-4.35 10.666-4.35 3.579 0 6.963 1.703 9.665 3.972v-3.339Zm0 14.434c0-5.355-4.332-9.764-9.665-9.764-5.333 0-9.666 4.409-9.666 9.764 0 5.354 4.333 9.763 9.666 9.763s9.665-4.409 9.665-9.763ZM294.588 47.78v15.336h-5.471V47.781c0-4.68-3.82-8.54-8.585-8.54-4.707 0-8.585 3.867-8.585 8.54v15.335h-5.471V34.561h5.47v2.744c2.483-1.873 5.472-3.305 8.586-3.305 3.752 0 7.314 1.375 9.987 3.989 2.6 2.62 4.069 6.054 4.069 9.792ZM331.736 57.943c-.498.633-1.002 1.258-1.564 1.827-2.813 2.837-6.556 4.35-10.558 4.35s-7.81-1.513-10.616-4.35c-2.811-2.896-4.37-6.68-4.37-10.71 0-4.03 1.565-7.814 4.37-10.71 2.813-2.837 6.62-4.35 10.616-4.35 3.995 0 7.745 1.513 10.558 4.35.562.569 1.06 1.136 1.5 1.769l-4.313 3.215c-1.752-2.393-4.558-4.03-7.745-4.03-5.307 0-9.62 4.408-9.62 9.763 0 5.354 4.313 9.763 9.62 9.763 3.187 0 5.993-1.637 7.745-4.095l4.377 3.208ZM367.836 50.253h-22.73v.127c.647 4.879 4.314 8.542 8.566 8.608 2.64-.126 5.346-1.223 7.213-3.084l4.639 2.758a17.687 17.687 0 0 1-3.926 3.277c-2.253 1.35-5.026 2.054-7.793 2.181-3.866 0-7.405-1.608-9.978-4.493-2.32-2.507-3.733-5.718-3.993-9.247-.066-.453-.066-.898-.066-1.35 0-1.157.127-2.314.386-3.47.58-2.699 1.867-5.138 3.673-7.126 2.573-2.826 6.18-4.434 9.978-4.434 3.867 0 7.406 1.608 10.046 4.434 1.807 1.988 3.152 4.434 3.672 7.127.44 2.638.374 4.115.313 4.692Zm-5.798-4.62-.066-.126c-1.288-3.79-4.574-6.355-8.18-6.355-3.539 0-6.826 2.566-8.178 6.355l-.068.126h16.492ZM398 55.188c0 1.67-.445 3.278-1.39 4.628-.883 1.35-2.15 2.374-3.86 3.213-1.52.704-3.356 1.091-5.19 1.091-1.01 0-1.96-.127-2.977-.32-3.166-.645-6.14-2.054-8.671-4.243l3.422-3.79c3.356 2.893 6.206 3.471 7.976 3.471 1.2 0 2.34-.26 3.356-.705.826-.385 2.28-1.35 2.28-3.339 0-1.994-1.71-3.21-5.636-3.917-.19-.066-5-.963-6.777-1.987-2.66-1.543-4.05-3.917-4.05-6.876 0-1.61.504-3.147 1.39-4.497.826-1.156 1.966-2.055 3.61-2.826A11.693 11.693 0 0 1 386.485 34c.695 0 1.456.067 2.15.127 2.785.452 5.506 1.67 7.787 3.531l-3.166 3.725c-2.851-2.25-5.315-2.567-6.522-2.567-1.14 0-2.215.193-3.1.644-1.265.645-2.091 1.796-2.091 2.954 0 1.928 1.52 2.952 5.382 3.79.065 0 5.256 1.156 6.71 1.994 1.712.9 2.34 1.61 3.042 2.508.879 1.27 1.324 2.807 1.324 4.482ZM148.004 80.358h13.052v2.528h-10.445v4.904h9.107v2.613h-9.107v8.278h10.184v2.587h-12.791v-20.91Zm7.832-5.194h1.97l-2.41 3.141h-1.044l1.484-3.141ZM172.97 80.184l6.66 17.265 6.685-17.265h2.853l-8.141 21.084h-2.762l-8.173-21.084zM199.208 80.358h13.052v2.528h-10.439v4.904h9.107v2.613h-9.107v8.278h10.184v2.587h-12.797v-20.91Zm7.832-5.194h1.97l-2.41 3.141h-1.045l1.485-3.141ZM225.006 84.595v16.673H222.3V80.184h2.944l11.418 16.673V80.184h2.706v21.084h-2.917zM251.416 80.184h13.052v2.55h-10.439v4.944h9.107v2.635h-9.107v8.346h10.184v2.609h-12.797zM291.898 101.268V84.451l-6.86 9.18-6.836-9.18v16.817h-2.69V80.184h2.843l6.683 9.003 6.68-9.003h2.87v21.084zM306.636 80.184h13.052v2.55h-10.446v4.944h9.107v2.635h-9.107v8.346h10.184v2.609h-12.79zM332.434 84.595v16.673h-2.706V80.184h2.944l11.418 16.673V80.184h2.706v21.084h-2.917zM362.508 82.793h-5.672v-2.609h14.056v2.609h-5.674v18.475h-2.716V82.793zM385.375 102.038c-2.253-.454-4.472-1.583-6.451-3.287l1.798-2.037c1.612 1.396 3.41 2.338 5.202 2.706 1.523.333 3.015.214 4.198-.334.788-.369 2.16-1.277 2.16-3.134 0-2.277-2.435-3.099-4.807-3.56-.214-.026-3.624-.727-4.988-1.523-1.824-1.095-2.8-2.738-2.8-4.743 0-1.122.367-2.19 1.001-3.132.643-.848 1.526-1.55 2.555-2.038 1.523-.728 3.315-.94 5.14-.64 1.98.333 3.985 1.275 5.75 2.738l-1.732 2.098c-3.135-2.585-6.177-2.646-8.002-1.798-1.25.582-1.979 1.644-1.979 2.74 0 2.07 1.765 2.858 4.566 3.466 1.156.273 3.563.669 4.987 1.49 1.98 1.095 3.015 2.8 3.015 4.896 0 1.249-.334 2.405-1.036 3.406-.642.915-1.611 1.61-2.708 2.158-1.156.582-2.339.762-3.683.762-.722.006-1.45-.087-2.186-.234Z"/>
        </g>
        <path d="M35.29 34.28a2.015 2.015 0 0 1-2.018 2.018 2.015 2.015 0 0 1-2.018-2.017c0-1.117.902-2.018 2.018-2.018 1.116 0 2.017.901 2.017 2.018Z" fill="#008585"/>
        <path d="M35.29 34.28a2.015 2.015 0 0 1-2.018 2.018 2.015 2.015 0 0 1-2.018-2.017c0-1.117.902-2.018 2.018-2.018 1.116 0 2.017.901 2.017 2.018ZM83.71 85.728c0-1.116.902-2.017 2.019-2.017 1.116 0 2.017.9 2.017 2.017 0 1.116-.9 2.018-2.017 2.018a2.015 2.015 0 0 1-2.018-2.018ZM85.729 36.298a2.016 2.016 0 0 1-2.018-2.017c0-1.117.901-2.018 2.018-2.018 1.116 0 2.017.901 2.017 2.018 0 1.116-.9 2.017-2.017 2.017ZM33.272 83.71c1.116 0 2.017.902 2.017 2.018a2.015 2.015 0 0 1-2.017 2.018 2.015 2.015 0 0 1-2.018-2.018c0-1.11.909-2.017 2.018-2.017Z" fill="#328585"/>
        <path d="M82.04 60.638c-2.455-.283-4.804-1.096-7.35-1.91-2.531-.807-5.366-1.549-8.286-1.358-.354.02-.715.059-1.063.105a6.957 6.957 0 0 0-.466-.932 203.766 203.766 0 0 0 5.084-5.526c3.15-3.524 6.214-7.14 9.022-11.011-3.864 2.808-7.48 5.873-11.003 9.023a202.926 202.926 0 0 0-5.525 5.086 6.823 6.823 0 0 0-3.497-.965l-.066.007c.014-.171.014-.335.033-.506.282-2.454 1.096-4.803 1.91-7.35.807-2.533 1.548-5.368 1.358-8.288a13.63 13.63 0 0 0-3.045-7.776c.512 2.723.807 5.263.48 7.717-.283 2.455-1.096 4.81-1.917 7.35-.813 2.527-1.555 5.368-1.364 8.288.02.348.059.696.105 1.037a6.698 6.698 0 0 0-.998.492 202.937 202.937 0 0 0-5.525-5.086c-3.523-3.15-7.139-6.214-11.003-9.023 2.808 3.865 5.872 7.481 9.022 11.012 1.66 1.877 3.36 3.714 5.085 5.525a6.807 6.807 0 0 0-.965 3.498v.06c-.144-.014-.288-.014-.426-.034-2.454-.282-4.803-1.096-7.35-1.91-2.532-.806-5.373-1.548-8.286-1.358a13.625 13.625 0 0 0-7.776 3.045c2.723-.512 5.262-.807 7.716-.479 2.455.282 4.81 1.096 7.35 1.916 2.526.814 5.367 1.556 8.287 1.365.321-.02.643-.052.964-.098.138.341.296.67.486.984a202.726 202.726 0 0 0-5.085 5.526c-3.15 3.524-6.214 7.14-9.022 11.011 3.87-2.808 7.486-5.866 11.01-9.023 1.877-1.66 3.714-3.36 5.525-5.086 1.03.61 2.217.965 3.497.965l.144-.007c-.013.145-.013.29-.032.433-.283 2.455-1.096 4.81-1.916 7.35-.814 2.527-1.556 5.368-1.365 8.289a13.635 13.635 0 0 0 3.051 7.776c-.512-2.723-.8-5.263-.472-7.717.282-2.455 1.095-4.804 1.909-7.35.807-2.533 1.548-5.368 1.358-8.288-.02-.335-.059-.663-.098-.991.321-.132.623-.282.918-.46a202.712 202.712 0 0 0 5.525 5.086c3.524 3.15 7.139 6.215 11.01 9.023-2.808-3.872-5.866-7.487-9.022-11.011a203.766 203.766 0 0 0-5.084-5.526 6.816 6.816 0 0 0 .963-3.498l-.006-.144c.17.013.34.013.512.04 2.454.282 4.81 1.095 7.348 1.916 2.527.813 5.369 1.555 8.288 1.365a13.589 13.589 0 0 0 7.776-3.052c-2.73.505-5.269.794-7.724.473ZM63.253 61.87a4.713 4.713 0 0 1-2.218 2.337c-.085.046-.164.098-.256.137a4.862 4.862 0 0 1-1.607.355c-.073.006-.145.02-.224.02-.65 0-1.266-.132-1.83-.375a4.696 4.696 0 0 1-2.362-2.277c-.033-.065-.08-.124-.105-.197a4.677 4.677 0 0 1-.361-1.693l-.013-.138c0-.65.137-1.266.374-1.83a4.683 4.683 0 0 1 2.296-2.376c.06-.026.112-.066.17-.092a4.711 4.711 0 0 1 1.7-.36l.131-.014c.65 0 1.267.131 1.831.374a4.684 4.684 0 0 1 2.343 2.238c.039.079.092.15.124.23.217.498.328 1.05.355 1.614.006.072.02.144.02.216a4.497 4.497 0 0 1-.368 1.831Z" fill="#CE9040"/>
        <path d="M18.821 18.821c22.429-22.428 58.929-22.428 81.357 0 22.43 22.429 22.43 58.93 0 81.358-22.428 22.428-58.928 22.428-81.357 0-22.428-22.429-22.428-58.93 0-81.358Zm79.877 79.876c21.616-21.615 21.616-56.779 0-78.394-21.616-21.616-56.78-21.616-78.395 0-21.616 21.615-21.616 56.779 0 78.394 21.615 21.61 56.785 21.61 78.395 0Z" fill="#CE9040"/>
    </g>
</svg>
