<svg xmlns="http://www.w3.org/2000/svg" xmlns:xlink="http://www.w3.org/1999/xlink" class="sprite-svg" style="display:none;"><symbol id="favicon" viewBox="0 0 512 512">
    <g fill-rule="nonzero" fill="none">
        <path d="M151.409 143.107a8.282 8.282 0 0 1-8.292 8.293 8.282 8.282 0 0 1-8.293-8.293 8.282 8.282 0 0 1 8.293-8.292 8.282 8.282 0 0 1 8.292 8.292Z" fill="#008585"/>
        <path d="M151.409 143.107a8.282 8.282 0 0 1-8.292 8.293 8.282 8.282 0 0 1-8.293-8.293 8.282 8.282 0 0 1 8.293-8.292 8.282 8.282 0 0 1 8.292 8.292ZM360.572 368.852a8.282 8.282 0 0 1 8.292-8.292 8.282 8.282 0 0 1 8.293 8.292 8.282 8.282 0 0 1-8.293 8.292c-4.559.029-8.292-3.704-8.292-8.292ZM368.864 151.371a8.282 8.282 0 0 1-8.292-8.292 8.282 8.282 0 0 1 8.292-8.292 8.282 8.282 0 0 1 8.293 8.292 8.282 8.282 0 0 1-8.293 8.292ZM143.117 360.588a8.282 8.282 0 0 1 8.292 8.292 8.282 8.282 0 0 1-8.292 8.292 8.282 8.282 0 0 1-8.293-8.292c0-4.56 3.705-8.292 8.293-8.292Z" fill="#008585"/>
        <path d="M356.268 258.572c-10.657-1.225-20.858-4.758-31.915-8.292-11-3.505-23.31-6.725-35.99-5.898a61.654 61.654 0 0 0-4.617.456 29.761 29.761 0 0 0-2.023-4.047c7.495-7.865 14.875-15.844 22.085-23.993 13.678-15.303 26.985-31.004 39.182-47.817-16.785 12.197-32.486 25.504-47.788 39.182-8.15 7.21-16.129 14.59-23.994 22.085-4.473-2.65-9.631-4.19-15.188-4.19l-.285.029c.057-.74.057-1.453.142-2.194 1.226-10.658 4.76-20.86 8.293-31.915 3.505-11 6.725-23.31 5.899-35.99-.77-12.625-5.643-24.564-13.223-33.768 2.223 11.825 3.505 22.853 2.08 33.51-1.225 10.658-4.758 20.888-8.32 31.916-3.534 10.971-6.754 23.31-5.928 35.99.086 1.51.257 3.021.457 4.503a29.124 29.124 0 0 0-4.332 2.137c-7.865-7.494-15.844-14.875-23.993-22.084-15.303-13.678-31.004-26.986-47.788-39.182 12.196 16.784 25.504 32.485 39.182 47.816 7.21 8.15 14.59 16.129 22.084 23.993a29.559 29.559 0 0 0-4.189 15.189v.256c-.627-.057-1.254-.057-1.852-.142-10.658-1.225-20.86-4.76-31.916-8.292-10.999-3.505-23.338-6.726-35.99-5.9-12.623.77-24.563 5.643-33.767 13.223 11.825-2.223 22.853-3.505 33.51-2.08 10.658 1.225 20.888 4.759 31.916 8.32 10.971 3.534 23.31 6.754 35.99 5.928a52.096 52.096 0 0 0 4.19-.428 29.764 29.764 0 0 0 2.108 4.275c-7.494 7.864-14.875 15.843-22.084 23.993-13.678 15.302-26.986 31.004-39.182 47.817 16.812-12.197 32.514-25.476 47.816-39.183 8.15-7.21 16.129-14.59 23.994-22.084 4.474 2.65 9.631 4.19 15.188 4.19l.627-.03c-.057.627-.057 1.254-.143 1.882-1.225 10.657-4.758 20.887-8.32 31.915-3.534 10.97-6.754 23.31-5.928 35.99.77 12.624 5.671 24.564 13.251 33.768-2.223-11.826-3.477-22.854-2.052-33.511 1.225-10.658 4.759-20.86 8.293-31.916 3.505-11 6.724-23.31 5.898-35.99-.085-1.454-.256-2.878-.427-4.303a28.974 28.974 0 0 0 3.99-1.995c7.864 7.495 15.843 14.875 23.993 22.084 15.302 13.679 31.003 26.986 47.816 39.183-12.196-16.813-25.476-32.515-39.182-47.817-7.21-8.15-14.59-16.129-22.084-23.993a29.556 29.556 0 0 0 4.188-15.189l-.028-.626c.741.056 1.482.056 2.223.17 10.657 1.226 20.887 4.76 31.915 8.321 10.971 3.534 23.31 6.754 35.99 5.927 12.624-.77 24.564-5.642 33.768-13.25-11.882 2.194-22.91 3.448-33.54 2.051Zm-81.583 5.358c-1.88 4.417-5.358 7.979-9.632 10.144-.37.2-.712.428-1.111.599-2.166.912-4.531 1.396-6.982 1.538-.313.029-.627.086-.969.086-2.82 0-5.5-.57-7.95-1.624-4.502-1.938-8.121-5.472-10.258-9.888-.143-.285-.342-.542-.456-.855-.97-2.251-1.482-4.76-1.568-7.352l-.057-.599c0-2.82.599-5.5 1.625-7.95 1.937-4.56 5.528-8.178 9.973-10.315.257-.114.485-.285.741-.4 2.28-.968 4.759-1.481 7.38-1.567l.57-.057c2.821 0 5.5.57 7.95 1.624 4.446 1.91 8.036 5.386 10.174 9.718.17.342.399.655.541.997.94 2.166 1.425 4.56 1.539 7.01.029.314.085.627.085.94.03 2.822-.57 5.5-1.595 7.95Z" fill="#D98C19"/>
        <path d="M79.145 79.135c97.514-97.513 256.207-97.513 353.721 0 97.512 97.513 97.512 256.207 0 353.72-97.514 97.512-256.207 97.512-353.72 0-97.514-97.513-97.542-256.207 0-353.72Zm347.282 347.28c93.979-93.98 93.979-246.86 0-340.84-93.981-93.98-246.862-93.98-340.841 0-93.98 93.98-93.98 246.86 0 340.84 93.98 93.951 246.86 93.951 340.84 0Z" fill="#D98C19"/>
    </g>
</symbol><symbol id="four-dots" viewBox="0 0 39 39"><g fill="none">
    <path d="M5.625 17.625a2.648 2.648 0 0 1 0 3.75 2.648 2.648 0 0 1-3.75 0 2.648 2.648 0 0 1 0-3.75 2.648 2.648 0 0 1 3.75 0ZM33.375 21.375a2.648 2.648 0 0 1 0-3.75 2.648 2.648 0 0 1 3.75 0 2.648 2.648 0 0 1 0 3.75 2.648 2.648 0 0 1-3.75 0ZM21.375 5.625a2.648 2.648 0 0 1-3.75 0 2.648 2.648 0 0 1 0-3.75 2.648 2.648 0 0 1 3.75 0 2.648 2.648 0 0 1 0 3.75ZM17.625 33.375a2.648 2.648 0 0 1 3.75 0 2.648 2.648 0 0 1 0 3.75 2.648 2.648 0 0 1-3.75 0 2.654 2.654 0 0 1 0-3.75Z" fill="#F2C488"/>
</g></symbol><symbol id="icon-arrow-down" viewBox="0 0 20 20">
    <path fill-rule="nonzero" d="M10.296 0H8.958v17.439l-4.012-4.012-.946.946 5.336 5.336v.046l.023-.023.268.268.267-.269.023.024v-.046l5.337-5.336-.946-.946-4.012 4.012z"/>
</symbol><symbol id="icon-arrow" viewBox="0 0 20 20">
    <path fill-rule="nonzero" d="M-.373 9.331v1.338h17.439l-4.012 4.012.946.946 5.336-5.336h.046l-.023-.023.268-.268-.269-.267.024-.023h-.046L14 4.373l-.946.946 4.012 4.012z"/>
</symbol><symbol id="icon-checkmark" viewBox="0 0 24 24"><g>
    <path d="m9 21.035-9-8.638 2.791-2.87 6.156 5.874 12.21-12.436L24 5.782z"/>
</g></symbol><symbol id="icon-chevron-down" viewBox="0 0 18 19"><g>
    <path d="m5.339 6.721 3.442 3.435 3.443-3.435L13.28 7.78l-4.5 4.5-4.5-4.5L5.34 6.72Z"/>
</g></symbol><symbol id="icon-loader" viewBox="0 0 39 39"><g>
    <path d="M5.625 17.625a2.648 2.648 0 0 1 0 3.75 2.648 2.648 0 0 1-3.75 0 2.648 2.648 0 0 1 0-3.75 2.648 2.648 0 0 1 3.75 0ZM33.375 21.375a2.648 2.648 0 0 1 0-3.75 2.648 2.648 0 0 1 3.75 0 2.648 2.648 0 0 1 0 3.75 2.648 2.648 0 0 1-3.75 0ZM21.375 5.625a2.648 2.648 0 0 1-3.75 0 2.648 2.648 0 0 1 0-3.75 2.648 2.648 0 0 1 3.75 0 2.648 2.648 0 0 1 0 3.75ZM17.625 33.375a2.648 2.648 0 0 1 3.75 0 2.648 2.648 0 0 1 0 3.75 2.648 2.648 0 0 1-3.75 0 2.654 2.654 0 0 1 0-3.75Z"/>
</g></symbol><symbol id="icon-mail" viewBox="0 0 20 20">
    <g fill-rule="nonzero">
        <path d="M17.273 2H2.727A2.733 2.733 0 0 0 0 4.727v10.91a2.733 2.733 0 0 0 2.727 2.727h14.546A2.733 2.733 0 0 0 20 15.636V4.727A2.733 2.733 0 0 0 17.273 2ZM2.727 3.818h14.546c.498 0 .909.411.909.91v10.908c0 .498-.411.91-.91.91H2.728a.914.914 0 0 1-.909-.91V4.727c0-.498.411-.909.91-.909Z"/>
        <path d="M18.57 3.983A.91.91 0 0 1 19.702 5.4l-.09.071-9.09 6.364a.91.91 0 0 1-.935.065l-.108-.065L.388 5.472a.91.91 0 0 1 .945-1.55l.097.06L10 9.982l8.57-5.998Z"/>
    </g>
</symbol><symbol id="icon-phone" viewBox="0 0 20 20">
    <path d="M5.462 0H2.735A2.74 2.74 0 0 0 .143 1.863c-.121.36-.166.741-.132 1.12a18.976 18.976 0 0 0 2.943 8.321 18.69 18.69 0 0 0 5.749 5.747 18.954 18.954 0 0 0 8.262 2.937 2.737 2.737 0 0 0 2.999-2.735v-2.732a2.736 2.736 0 0 0-2.354-2.755 10.826 10.826 0 0 1-2.371-.59 2.733 2.733 0 0 0-1.531-.114l-.19.048a2.736 2.736 0 0 0-1.164.683l-.656.656-.11-.068a13.683 13.683 0 0 1-4.004-4.005l-.07-.11.654-.653a2.74 2.74 0 0 0 .62-2.89 10.794 10.794 0 0 1-.589-2.361A2.742 2.742 0 0 0 5.462 0ZM2.736 1.824H5.47a.912.912 0 0 1 .921.784c.123.936.354 1.863.687 2.755a.914.914 0 0 1-.204.964L5.72 7.482a.912.912 0 0 0-.148 1.096 15.507 15.507 0 0 0 5.814 5.814.912.912 0 0 0 1.096-.148l1.159-1.158a.908.908 0 0 1 .958-.202c.894.334 1.821.565 2.765.69a.912.912 0 0 1 .776.925v2.758a.916.916 0 0 1-.62.871.913.913 0 0 1-.374.045 17.124 17.124 0 0 1-7.457-2.657 16.885 16.885 0 0 1-5.2-5.197 17.147 17.147 0 0 1-2.662-7.515.9.9 0 0 1 .236-.683.912.912 0 0 1 .673-.297Z" fill-rule="nonzero"/>
</symbol><symbol id="logo-dark" viewBox="0 0 400 120">
    <g fill-rule="nonzero" fill="none">
        <g fill="#FFF">
            <path d="M175.112 47.78v15.336h-5.471V47.78c0-4.68-3.818-8.538-8.585-8.538-4.707 0-8.585 3.865-8.585 8.538v15.336H147V34.562h5.471v2.743c2.482-1.872 5.471-3.305 8.585-3.305 3.753 0 7.314 1.374 9.987 3.989 2.607 2.62 4.069 6.055 4.069 9.79ZM186.156 50.3V34h5.5v16.3c0 4.167 3.58 7.593 8.054 7.593 4.414 0 8.054-3.42 8.054-7.592V34h5.5v16.3c0 3.485-1.47 6.717-4.03 9.145-2.562 2.427-5.944 3.671-9.524 3.671-3.647 0-7.035-1.244-9.59-3.67-2.554-2.43-3.964-5.661-3.964-9.145ZM249.03 34.633h5.398v28.854h-5.398v-3.34c-2.695 2.27-6.086 3.973-9.665 3.973-4.015 0-7.782-1.513-10.666-4.35-2.826-2.896-4.391-6.68-4.391-10.71 0-4.03 1.572-7.813 4.391-10.71 2.884-2.837 6.651-4.35 10.666-4.35 3.579 0 6.963 1.703 9.665 3.972v-3.339Zm0 14.434c0-5.355-4.332-9.764-9.665-9.764-5.333 0-9.666 4.409-9.666 9.764 0 5.354 4.333 9.763 9.666 9.763s9.665-4.409 9.665-9.763ZM294.588 47.78v15.336h-5.471V47.781c0-4.68-3.82-8.54-8.585-8.54-4.707 0-8.585 3.867-8.585 8.54v15.335h-5.471V34.561h5.47v2.744c2.483-1.873 5.472-3.305 8.586-3.305 3.752 0 7.314 1.375 9.987 3.989 2.6 2.62 4.069 6.054 4.069 9.792ZM331.736 57.943c-.498.633-1.002 1.258-1.564 1.827-2.813 2.837-6.556 4.35-10.558 4.35s-7.81-1.513-10.616-4.35c-2.811-2.896-4.37-6.68-4.37-10.71 0-4.03 1.565-7.814 4.37-10.71 2.813-2.837 6.62-4.35 10.616-4.35 3.995 0 7.745 1.513 10.558 4.35.562.569 1.06 1.136 1.5 1.769l-4.313 3.215c-1.752-2.393-4.558-4.03-7.745-4.03-5.307 0-9.62 4.408-9.62 9.763 0 5.354 4.313 9.763 9.62 9.763 3.187 0 5.993-1.637 7.745-4.095l4.377 3.208ZM367.836 50.253h-22.73v.127c.647 4.879 4.314 8.542 8.566 8.608 2.64-.126 5.346-1.223 7.213-3.084l4.639 2.758a17.687 17.687 0 0 1-3.926 3.277c-2.253 1.35-5.026 2.054-7.793 2.181-3.866 0-7.405-1.608-9.978-4.493-2.32-2.507-3.733-5.718-3.993-9.247-.066-.453-.066-.898-.066-1.35 0-1.157.127-2.314.386-3.47.58-2.699 1.867-5.138 3.673-7.126 2.573-2.826 6.18-4.434 9.978-4.434 3.867 0 7.406 1.608 10.046 4.434 1.807 1.988 3.152 4.434 3.672 7.127.44 2.638.374 4.115.313 4.692Zm-5.798-4.62-.066-.126c-1.288-3.79-4.574-6.355-8.18-6.355-3.539 0-6.826 2.566-8.178 6.355l-.068.126h16.492ZM398 55.188c0 1.67-.445 3.278-1.39 4.628-.883 1.35-2.15 2.374-3.86 3.213-1.52.704-3.356 1.091-5.19 1.091-1.01 0-1.96-.127-2.977-.32-3.166-.645-6.14-2.054-8.671-4.243l3.422-3.79c3.356 2.893 6.206 3.471 7.976 3.471 1.2 0 2.34-.26 3.356-.705.826-.385 2.28-1.35 2.28-3.339 0-1.994-1.71-3.21-5.636-3.917-.19-.066-5-.963-6.777-1.987-2.66-1.543-4.05-3.917-4.05-6.876 0-1.61.504-3.147 1.39-4.497.826-1.156 1.966-2.055 3.61-2.826A11.693 11.693 0 0 1 386.485 34c.695 0 1.456.067 2.15.127 2.785.452 5.506 1.67 7.787 3.531l-3.166 3.725c-2.851-2.25-5.315-2.567-6.522-2.567-1.14 0-2.215.193-3.1.644-1.265.645-2.091 1.796-2.091 2.954 0 1.928 1.52 2.952 5.382 3.79.065 0 5.256 1.156 6.71 1.994 1.712.9 2.34 1.61 3.042 2.508.879 1.27 1.324 2.807 1.324 4.482ZM148.004 80.358h13.052v2.528h-10.445v4.904h9.107v2.613h-9.107v8.278h10.184v2.587h-12.791v-20.91Zm7.832-5.194h1.97l-2.41 3.141h-1.044l1.484-3.141ZM172.97 80.184l6.66 17.265 6.685-17.265h2.853l-8.141 21.084h-2.762l-8.173-21.084zM199.208 80.358h13.052v2.528h-10.439v4.904h9.107v2.613h-9.107v8.278h10.184v2.587h-12.797v-20.91Zm7.832-5.194h1.97l-2.41 3.141h-1.045l1.485-3.141ZM225.006 84.595v16.673H222.3V80.184h2.944l11.418 16.673V80.184h2.706v21.084h-2.917zM251.416 80.184h13.052v2.55h-10.439v4.944h9.107v2.635h-9.107v8.346h10.184v2.609h-12.797zM291.898 101.268V84.451l-6.86 9.18-6.836-9.18v16.817h-2.69V80.184h2.843l6.683 9.003 6.68-9.003h2.87v21.084zM306.636 80.184h13.052v2.55h-10.446v4.944h9.107v2.635h-9.107v8.346h10.184v2.609h-12.79zM332.434 84.595v16.673h-2.706V80.184h2.944l11.418 16.673V80.184h2.706v21.084h-2.917zM362.508 82.793h-5.672v-2.609h14.056v2.609h-5.674v18.475h-2.716V82.793zM385.375 102.038c-2.253-.454-4.472-1.583-6.451-3.287l1.798-2.037c1.612 1.396 3.41 2.338 5.202 2.706 1.523.333 3.015.214 4.198-.334.788-.369 2.16-1.277 2.16-3.134 0-2.277-2.435-3.099-4.807-3.56-.214-.026-3.624-.727-4.988-1.523-1.824-1.095-2.8-2.738-2.8-4.743 0-1.122.367-2.19 1.001-3.132.643-.848 1.526-1.55 2.555-2.038 1.523-.728 3.315-.94 5.14-.64 1.98.333 3.985 1.275 5.75 2.738l-1.732 2.098c-3.135-2.585-6.177-2.646-8.002-1.798-1.25.582-1.979 1.644-1.979 2.74 0 2.07 1.765 2.858 4.566 3.466 1.156.273 3.563.669 4.987 1.49 1.98 1.095 3.015 2.8 3.015 4.896 0 1.249-.334 2.405-1.036 3.406-.642.915-1.611 1.61-2.708 2.158-1.156.582-2.339.762-3.683.762-.722.006-1.45-.087-2.186-.234Z"/>
        </g>
        <path d="M35.29 34.28a2.015 2.015 0 0 1-2.018 2.018 2.015 2.015 0 0 1-2.018-2.017c0-1.117.902-2.018 2.018-2.018 1.116 0 2.017.901 2.017 2.018Z" fill="#008585"/>
        <path d="M35.29 34.28a2.015 2.015 0 0 1-2.018 2.018 2.015 2.015 0 0 1-2.018-2.017c0-1.117.902-2.018 2.018-2.018 1.116 0 2.017.901 2.017 2.018ZM83.71 85.728c0-1.116.902-2.017 2.019-2.017 1.116 0 2.017.9 2.017 2.017 0 1.116-.9 2.018-2.017 2.018a2.015 2.015 0 0 1-2.018-2.018ZM85.729 36.298a2.016 2.016 0 0 1-2.018-2.017c0-1.117.901-2.018 2.018-2.018 1.116 0 2.017.901 2.017 2.018 0 1.116-.9 2.017-2.017 2.017ZM33.272 83.71c1.116 0 2.017.902 2.017 2.018a2.015 2.015 0 0 1-2.017 2.018 2.015 2.015 0 0 1-2.018-2.018c0-1.11.909-2.017 2.018-2.017Z" fill="#328585"/>
        <path d="M82.04 60.638c-2.455-.283-4.804-1.096-7.35-1.91-2.531-.807-5.366-1.549-8.286-1.358-.354.02-.715.059-1.063.105a6.957 6.957 0 0 0-.466-.932 203.766 203.766 0 0 0 5.084-5.526c3.15-3.524 6.214-7.14 9.022-11.011-3.864 2.808-7.48 5.873-11.003 9.023a202.926 202.926 0 0 0-5.525 5.086 6.823 6.823 0 0 0-3.497-.965l-.066.007c.014-.171.014-.335.033-.506.282-2.454 1.096-4.803 1.91-7.35.807-2.533 1.548-5.368 1.358-8.288a13.63 13.63 0 0 0-3.045-7.776c.512 2.723.807 5.263.48 7.717-.283 2.455-1.096 4.81-1.917 7.35-.813 2.527-1.555 5.368-1.364 8.288.02.348.059.696.105 1.037a6.698 6.698 0 0 0-.998.492 202.937 202.937 0 0 0-5.525-5.086c-3.523-3.15-7.139-6.214-11.003-9.023 2.808 3.865 5.872 7.481 9.022 11.012 1.66 1.877 3.36 3.714 5.085 5.525a6.807 6.807 0 0 0-.965 3.498v.06c-.144-.014-.288-.014-.426-.034-2.454-.282-4.803-1.096-7.35-1.91-2.532-.806-5.373-1.548-8.286-1.358a13.625 13.625 0 0 0-7.776 3.045c2.723-.512 5.262-.807 7.716-.479 2.455.282 4.81 1.096 7.35 1.916 2.526.814 5.367 1.556 8.287 1.365.321-.02.643-.052.964-.098.138.341.296.67.486.984a202.726 202.726 0 0 0-5.085 5.526c-3.15 3.524-6.214 7.14-9.022 11.011 3.87-2.808 7.486-5.866 11.01-9.023 1.877-1.66 3.714-3.36 5.525-5.086 1.03.61 2.217.965 3.497.965l.144-.007c-.013.145-.013.29-.032.433-.283 2.455-1.096 4.81-1.916 7.35-.814 2.527-1.556 5.368-1.365 8.289a13.635 13.635 0 0 0 3.051 7.776c-.512-2.723-.8-5.263-.472-7.717.282-2.455 1.095-4.804 1.909-7.35.807-2.533 1.548-5.368 1.358-8.288-.02-.335-.059-.663-.098-.991.321-.132.623-.282.918-.46a202.712 202.712 0 0 0 5.525 5.086c3.524 3.15 7.139 6.215 11.01 9.023-2.808-3.872-5.866-7.487-9.022-11.011a203.766 203.766 0 0 0-5.084-5.526 6.816 6.816 0 0 0 .963-3.498l-.006-.144c.17.013.34.013.512.04 2.454.282 4.81 1.095 7.348 1.916 2.527.813 5.369 1.555 8.288 1.365a13.589 13.589 0 0 0 7.776-3.052c-2.73.505-5.269.794-7.724.473ZM63.253 61.87a4.713 4.713 0 0 1-2.218 2.337c-.085.046-.164.098-.256.137a4.862 4.862 0 0 1-1.607.355c-.073.006-.145.02-.224.02-.65 0-1.266-.132-1.83-.375a4.696 4.696 0 0 1-2.362-2.277c-.033-.065-.08-.124-.105-.197a4.677 4.677 0 0 1-.361-1.693l-.013-.138c0-.65.137-1.266.374-1.83a4.683 4.683 0 0 1 2.296-2.376c.06-.026.112-.066.17-.092a4.711 4.711 0 0 1 1.7-.36l.131-.014c.65 0 1.267.131 1.831.374a4.684 4.684 0 0 1 2.343 2.238c.039.079.092.15.124.23.217.498.328 1.05.355 1.614.006.072.02.144.02.216a4.497 4.497 0 0 1-.368 1.831Z" fill="#CE9040"/>
        <path d="M18.821 18.821c22.429-22.428 58.929-22.428 81.357 0 22.43 22.429 22.43 58.93 0 81.358-22.428 22.428-58.928 22.428-81.357 0-22.428-22.429-22.428-58.93 0-81.358Zm79.877 79.876c21.616-21.615 21.616-56.779 0-78.394-21.616-21.616-56.78-21.616-78.395 0-21.616 21.615-21.616 56.779 0 78.394 21.615 21.61 56.785 21.61 78.395 0Z" fill="#CE9040"/>
    </g>
</symbol><symbol id="logo-nuances" viewBox="0 0 400 120">
    <g fill-rule="nonzero" fill="none">
        <g fill="#28333A">
            <path d="M175.112 47.78v15.336h-5.471V47.78c0-4.68-3.818-8.538-8.585-8.538-4.707 0-8.585 3.865-8.585 8.538v15.336H147V34.562h5.471v2.743c2.482-1.872 5.471-3.305 8.585-3.305 3.753 0 7.314 1.374 9.987 3.989 2.607 2.62 4.069 6.055 4.069 9.79ZM186.156 50.3V34h5.5v16.3c0 4.167 3.58 7.593 8.054 7.593 4.414 0 8.054-3.42 8.054-7.592V34h5.5v16.3c0 3.485-1.47 6.717-4.03 9.145-2.562 2.427-5.944 3.671-9.524 3.671-3.647 0-7.035-1.244-9.59-3.67-2.554-2.43-3.964-5.661-3.964-9.145ZM249.03 34.633h5.398v28.854h-5.398v-3.34c-2.695 2.27-6.086 3.973-9.665 3.973-4.015 0-7.782-1.513-10.666-4.35-2.826-2.896-4.391-6.68-4.391-10.71 0-4.03 1.572-7.813 4.391-10.71 2.884-2.837 6.651-4.35 10.666-4.35 3.579 0 6.963 1.703 9.665 3.972v-3.339Zm0 14.434c0-5.355-4.332-9.764-9.665-9.764-5.333 0-9.666 4.409-9.666 9.764 0 5.354 4.333 9.763 9.666 9.763s9.665-4.409 9.665-9.763ZM294.588 47.78v15.336h-5.471V47.781c0-4.68-3.82-8.54-8.585-8.54-4.707 0-8.585 3.867-8.585 8.54v15.335h-5.471V34.561h5.47v2.744c2.483-1.873 5.472-3.305 8.586-3.305 3.752 0 7.314 1.375 9.987 3.989 2.6 2.62 4.069 6.054 4.069 9.792ZM331.736 57.943c-.498.633-1.002 1.258-1.564 1.827-2.813 2.837-6.556 4.35-10.558 4.35s-7.81-1.513-10.616-4.35c-2.811-2.896-4.37-6.68-4.37-10.71 0-4.03 1.565-7.814 4.37-10.71 2.813-2.837 6.62-4.35 10.616-4.35 3.995 0 7.745 1.513 10.558 4.35.562.569 1.06 1.136 1.5 1.769l-4.313 3.215c-1.752-2.393-4.558-4.03-7.745-4.03-5.307 0-9.62 4.408-9.62 9.763 0 5.354 4.313 9.763 9.62 9.763 3.187 0 5.993-1.637 7.745-4.095l4.377 3.208ZM367.836 50.253h-22.73v.127c.647 4.879 4.314 8.542 8.566 8.608 2.64-.126 5.346-1.223 7.213-3.084l4.639 2.758a17.687 17.687 0 0 1-3.926 3.277c-2.253 1.35-5.026 2.054-7.793 2.181-3.866 0-7.405-1.608-9.978-4.493-2.32-2.507-3.733-5.718-3.993-9.247-.066-.453-.066-.898-.066-1.35 0-1.157.127-2.314.386-3.47.58-2.699 1.867-5.138 3.673-7.126 2.573-2.826 6.18-4.434 9.978-4.434 3.867 0 7.406 1.608 10.046 4.434 1.807 1.988 3.152 4.434 3.672 7.127.44 2.638.374 4.115.313 4.692Zm-5.798-4.62-.066-.126c-1.288-3.79-4.574-6.355-8.18-6.355-3.539 0-6.826 2.566-8.178 6.355l-.068.126h16.492ZM398 55.188c0 1.67-.445 3.278-1.39 4.628-.883 1.35-2.15 2.374-3.86 3.213-1.52.704-3.356 1.091-5.19 1.091-1.01 0-1.96-.127-2.977-.32-3.166-.645-6.14-2.054-8.671-4.243l3.422-3.79c3.356 2.893 6.206 3.471 7.976 3.471 1.2 0 2.34-.26 3.356-.705.826-.385 2.28-1.35 2.28-3.339 0-1.994-1.71-3.21-5.636-3.917-.19-.066-5-.963-6.777-1.987-2.66-1.543-4.05-3.917-4.05-6.876 0-1.61.504-3.147 1.39-4.497.826-1.156 1.966-2.055 3.61-2.826A11.693 11.693 0 0 1 386.485 34c.695 0 1.456.067 2.15.127 2.785.452 5.506 1.67 7.787 3.531l-3.166 3.725c-2.851-2.25-5.315-2.567-6.522-2.567-1.14 0-2.215.193-3.1.644-1.265.645-2.091 1.796-2.091 2.954 0 1.928 1.52 2.952 5.382 3.79.065 0 5.256 1.156 6.71 1.994 1.712.9 2.34 1.61 3.042 2.508.879 1.27 1.324 2.807 1.324 4.482ZM148.004 80.358h13.052v2.528h-10.445v4.904h9.107v2.613h-9.107v8.278h10.184v2.587h-12.791v-20.91Zm7.832-5.194h1.97l-2.41 3.141h-1.044l1.484-3.141ZM172.97 80.184l6.66 17.265 6.685-17.265h2.853l-8.141 21.084h-2.762l-8.173-21.084zM199.208 80.358h13.052v2.528h-10.439v4.904h9.107v2.613h-9.107v8.278h10.184v2.587h-12.797v-20.91Zm7.832-5.194h1.97l-2.41 3.141h-1.045l1.485-3.141ZM225.006 84.595v16.673H222.3V80.184h2.944l11.418 16.673V80.184h2.706v21.084h-2.917zM251.416 80.184h13.052v2.55h-10.439v4.944h9.107v2.635h-9.107v8.346h10.184v2.609h-12.797zM291.898 101.268V84.451l-6.86 9.18-6.836-9.18v16.817h-2.69V80.184h2.843l6.683 9.003 6.68-9.003h2.87v21.084zM306.636 80.184h13.052v2.55h-10.446v4.944h9.107v2.635h-9.107v8.346h10.184v2.609h-12.79zM332.434 84.595v16.673h-2.706V80.184h2.944l11.418 16.673V80.184h2.706v21.084h-2.917zM362.508 82.793h-5.672v-2.609h14.056v2.609h-5.674v18.475h-2.716V82.793zM385.375 102.038c-2.253-.454-4.472-1.583-6.451-3.287l1.798-2.037c1.612 1.396 3.41 2.338 5.202 2.706 1.523.333 3.015.214 4.198-.334.788-.369 2.16-1.277 2.16-3.134 0-2.277-2.435-3.099-4.807-3.56-.214-.026-3.624-.727-4.988-1.523-1.824-1.095-2.8-2.738-2.8-4.743 0-1.122.367-2.19 1.001-3.132.643-.848 1.526-1.55 2.555-2.038 1.523-.728 3.315-.94 5.14-.64 1.98.333 3.985 1.275 5.75 2.738l-1.732 2.098c-3.135-2.585-6.177-2.646-8.002-1.798-1.25.582-1.979 1.644-1.979 2.74 0 2.07 1.765 2.858 4.566 3.466 1.156.273 3.563.669 4.987 1.49 1.98 1.095 3.015 2.8 3.015 4.896 0 1.249-.334 2.405-1.036 3.406-.642.915-1.611 1.61-2.708 2.158-1.156.582-2.339.762-3.683.762-.722.006-1.45-.087-2.186-.234Z"/>
        </g>
        <path d="M35.29 34.28a2.015 2.015 0 0 1-2.018 2.018 2.015 2.015 0 0 1-2.018-2.017c0-1.117.902-2.018 2.018-2.018 1.116 0 2.017.901 2.017 2.018Z" fill="#008585"/>
        <path d="M35.29 34.28a2.015 2.015 0 0 1-2.018 2.018 2.015 2.015 0 0 1-2.018-2.017c0-1.117.902-2.018 2.018-2.018 1.116 0 2.017.901 2.017 2.018ZM83.71 85.728c0-1.116.902-2.017 2.019-2.017 1.116 0 2.017.9 2.017 2.017 0 1.116-.9 2.018-2.017 2.018a2.015 2.015 0 0 1-2.018-2.018ZM85.729 36.298a2.016 2.016 0 0 1-2.018-2.017c0-1.117.901-2.018 2.018-2.018 1.116 0 2.017.901 2.017 2.018 0 1.116-.9 2.017-2.017 2.017ZM33.272 83.71c1.116 0 2.017.902 2.017 2.018a2.015 2.015 0 0 1-2.017 2.018 2.015 2.015 0 0 1-2.018-2.018c0-1.11.909-2.017 2.018-2.017Z" fill="#328585"/>
        <path d="M82.04 60.638c-2.455-.283-4.804-1.096-7.35-1.91-2.531-.807-5.366-1.549-8.286-1.358-.354.02-.715.059-1.063.105a6.957 6.957 0 0 0-.466-.932 203.766 203.766 0 0 0 5.084-5.526c3.15-3.524 6.214-7.14 9.022-11.011-3.864 2.808-7.48 5.873-11.003 9.023a202.926 202.926 0 0 0-5.525 5.086 6.823 6.823 0 0 0-3.497-.965l-.066.007c.014-.171.014-.335.033-.506.282-2.454 1.096-4.803 1.91-7.35.807-2.533 1.548-5.368 1.358-8.288a13.63 13.63 0 0 0-3.045-7.776c.512 2.723.807 5.263.48 7.717-.283 2.455-1.096 4.81-1.917 7.35-.813 2.527-1.555 5.368-1.364 8.288.02.348.059.696.105 1.037a6.698 6.698 0 0 0-.998.492 202.937 202.937 0 0 0-5.525-5.086c-3.523-3.15-7.139-6.214-11.003-9.023 2.808 3.865 5.872 7.481 9.022 11.012 1.66 1.877 3.36 3.714 5.085 5.525a6.807 6.807 0 0 0-.965 3.498v.06c-.144-.014-.288-.014-.426-.034-2.454-.282-4.803-1.096-7.35-1.91-2.532-.806-5.373-1.548-8.286-1.358a13.625 13.625 0 0 0-7.776 3.045c2.723-.512 5.262-.807 7.716-.479 2.455.282 4.81 1.096 7.35 1.916 2.526.814 5.367 1.556 8.287 1.365.321-.02.643-.052.964-.098.138.341.296.67.486.984a202.726 202.726 0 0 0-5.085 5.526c-3.15 3.524-6.214 7.14-9.022 11.011 3.87-2.808 7.486-5.866 11.01-9.023 1.877-1.66 3.714-3.36 5.525-5.086 1.03.61 2.217.965 3.497.965l.144-.007c-.013.145-.013.29-.032.433-.283 2.455-1.096 4.81-1.916 7.35-.814 2.527-1.556 5.368-1.365 8.289a13.635 13.635 0 0 0 3.051 7.776c-.512-2.723-.8-5.263-.472-7.717.282-2.455 1.095-4.804 1.909-7.35.807-2.533 1.548-5.368 1.358-8.288-.02-.335-.059-.663-.098-.991.321-.132.623-.282.918-.46a202.712 202.712 0 0 0 5.525 5.086c3.524 3.15 7.139 6.215 11.01 9.023-2.808-3.872-5.866-7.487-9.022-11.011a203.766 203.766 0 0 0-5.084-5.526 6.816 6.816 0 0 0 .963-3.498l-.006-.144c.17.013.34.013.512.04 2.454.282 4.81 1.095 7.348 1.916 2.527.813 5.369 1.555 8.288 1.365a13.589 13.589 0 0 0 7.776-3.052c-2.73.505-5.269.794-7.724.473ZM63.253 61.87a4.713 4.713 0 0 1-2.218 2.337c-.085.046-.164.098-.256.137a4.862 4.862 0 0 1-1.607.355c-.073.006-.145.02-.224.02-.65 0-1.266-.132-1.83-.375a4.696 4.696 0 0 1-2.362-2.277c-.033-.065-.08-.124-.105-.197a4.677 4.677 0 0 1-.361-1.693l-.013-.138c0-.65.137-1.266.374-1.83a4.683 4.683 0 0 1 2.296-2.376c.06-.026.112-.066.17-.092a4.711 4.711 0 0 1 1.7-.36l.131-.014c.65 0 1.267.131 1.831.374a4.684 4.684 0 0 1 2.343 2.238c.039.079.092.15.124.23.217.498.328 1.05.355 1.614.006.072.02.144.02.216a4.497 4.497 0 0 1-.368 1.831Z" fill="#CE9040"/>
        <path d="M18.821 18.821c22.429-22.428 58.929-22.428 81.357 0 22.43 22.429 22.43 58.93 0 81.358-22.428 22.428-58.928 22.428-81.357 0-22.428-22.429-22.428-58.93 0-81.358Zm79.877 79.876c21.616-21.615 21.616-56.779 0-78.394-21.616-21.616-56.78-21.616-78.395 0-21.616 21.615-21.616 56.779 0 78.394 21.615 21.61 56.785 21.61 78.395 0Z" fill="#CE9040"/>
    </g>
</symbol><symbol id="rosace-alt" viewBox="0 0 30 30"><g fill="none">
    <path d="M26.235 15.309c-1.197-.138-2.342-.535-3.583-.931-1.235-.394-2.617-.755-4.04-.662-.173.01-.349.028-.519.05a3.337 3.337 0 0 0-.227-.454 99.13 99.13 0 0 0 2.48-2.694c1.535-1.718 3.029-3.48 4.398-5.368-1.884 1.37-3.647 2.863-5.365 4.4a98.91 98.91 0 0 0-2.693 2.479 3.327 3.327 0 0 0-1.705-.47l-.032.002c.006-.083.006-.163.016-.246.137-1.196.534-2.342.93-3.583.394-1.235.756-2.617.663-4.04A6.645 6.645 0 0 0 15.074 0c.25 1.328.393 2.566.233 3.762-.138 1.197-.534 2.345-.934 3.584-.397 1.231-.758 2.617-.665 4.04.01.17.028.34.05.506-.169.067-.332.147-.485.24a99.062 99.062 0 0 0-2.694-2.48c-1.718-1.535-3.48-3.03-5.365-4.399 1.37 1.885 2.863 3.647 4.399 5.369.81.915 1.638 1.81 2.48 2.694-.298.499-.471 1.08-.471 1.705v.029c-.07-.007-.14-.007-.208-.016-1.197-.138-2.342-.535-3.583-.931-1.235-.394-2.62-.755-4.04-.663A6.643 6.643 0 0 0 0 14.925c1.328-.25 2.566-.394 3.762-.234 1.196.138 2.345.535 3.583.934 1.231.397 2.617.759 4.04.666a5.85 5.85 0 0 0 .47-.048c.068.166.144.326.237.48a98.948 98.948 0 0 0-2.48 2.694c-1.535 1.718-3.029 3.48-4.398 5.368 1.888-1.37 3.65-2.86 5.368-4.399.915-.81 1.81-1.638 2.694-2.48.502.298 1.081.47 1.705.47l.07-.002c-.006.07-.006.14-.016.21-.137 1.197-.534 2.346-.934 3.584-.397 1.232-.758 2.617-.665 4.04A6.648 6.648 0 0 0 14.923 30c-.25-1.328-.39-2.566-.23-3.762.138-1.197.534-2.342.93-3.584.394-1.235.756-2.617.663-4.04a7.97 7.97 0 0 0-.048-.483 3.25 3.25 0 0 0 .448-.224c.883.841 1.779 1.67 2.693 2.48 1.718 1.535 3.48 3.029 5.368 4.398-1.369-1.887-2.86-3.65-4.398-5.368a98.98 98.98 0 0 0-2.48-2.694c.298-.5.47-1.081.47-1.705l-.002-.07c.083.006.166.006.25.018 1.195.138 2.344.535 3.582.935 1.232.396 2.617.758 4.04.665A6.625 6.625 0 0 0 30 15.078c-1.334.247-2.572.388-3.765.23Zm-9.159.601a2.298 2.298 0 0 1-1.081 1.14c-.042.022-.08.047-.125.066a2.37 2.37 0 0 1-.784.173c-.035.003-.07.01-.108.01-.317 0-.618-.064-.893-.183a2.289 2.289 0 0 1-1.152-1.11c-.015-.032-.038-.06-.05-.096a2.28 2.28 0 0 1-.177-.825l-.006-.067c0-.317.067-.618.182-.893.218-.512.62-.918 1.12-1.158.029-.013.054-.032.083-.045.256-.109.534-.166.829-.176l.064-.006a2.25 2.25 0 0 1 2.034 1.273c.02.038.045.074.06.112.107.243.16.512.174.787.003.035.01.07.01.106.003.316-.065.617-.18.892Z" fill="#F2C488"/>
</g></symbol><symbol id="rosace" viewBox="0 0 120 120">
    <g fill-rule="nonzero" fill="none">
        <path d="M35.29 34.28a2.015 2.015 0 0 1-2.018 2.018 2.015 2.015 0 0 1-2.018-2.017c0-1.117.902-2.018 2.018-2.018 1.116 0 2.017.901 2.017 2.018Z" fill="#008585"/>
        <path d="M35.29 34.28a2.015 2.015 0 0 1-2.018 2.018 2.015 2.015 0 0 1-2.018-2.017c0-1.117.902-2.018 2.018-2.018 1.116 0 2.017.901 2.017 2.018ZM83.71 85.728c0-1.116.902-2.017 2.019-2.017 1.116 0 2.017.9 2.017 2.017 0 1.116-.9 2.018-2.017 2.018a2.015 2.015 0 0 1-2.018-2.018ZM85.729 36.298a2.016 2.016 0 0 1-2.018-2.017c0-1.117.901-2.018 2.018-2.018 1.116 0 2.017.901 2.017 2.018 0 1.116-.9 2.017-2.017 2.017ZM33.272 83.71c1.116 0 2.017.902 2.017 2.018a2.015 2.015 0 0 1-2.017 2.018 2.015 2.015 0 0 1-2.018-2.018c0-1.11.909-2.017 2.018-2.017Z" fill="#328585"/>
        <path d="M82.04 60.638c-2.455-.283-4.804-1.096-7.35-1.91-2.531-.807-5.366-1.549-8.286-1.358-.354.02-.715.059-1.063.105a6.957 6.957 0 0 0-.466-.932 203.766 203.766 0 0 0 5.084-5.526c3.15-3.524 6.214-7.14 9.022-11.011-3.864 2.808-7.48 5.873-11.003 9.023a202.926 202.926 0 0 0-5.525 5.086 6.823 6.823 0 0 0-3.497-.965l-.066.007c.014-.171.014-.335.033-.506.282-2.454 1.096-4.803 1.91-7.35.807-2.533 1.548-5.368 1.358-8.288a13.63 13.63 0 0 0-3.045-7.776c.512 2.723.807 5.263.48 7.717-.283 2.455-1.096 4.81-1.917 7.35-.813 2.527-1.555 5.368-1.364 8.288.02.348.059.696.105 1.037a6.698 6.698 0 0 0-.998.492 202.937 202.937 0 0 0-5.525-5.086c-3.523-3.15-7.139-6.214-11.003-9.023 2.808 3.865 5.872 7.481 9.022 11.012 1.66 1.877 3.36 3.714 5.085 5.525a6.807 6.807 0 0 0-.965 3.498v.06c-.144-.014-.288-.014-.426-.034-2.454-.282-4.803-1.096-7.35-1.91-2.532-.806-5.373-1.548-8.286-1.358a13.625 13.625 0 0 0-7.776 3.045c2.723-.512 5.262-.807 7.716-.479 2.455.282 4.81 1.096 7.35 1.916 2.526.814 5.367 1.556 8.287 1.365.321-.02.643-.052.964-.098.138.341.296.67.486.984a202.726 202.726 0 0 0-5.085 5.526c-3.15 3.524-6.214 7.14-9.022 11.011 3.87-2.808 7.486-5.866 11.01-9.023 1.877-1.66 3.714-3.36 5.525-5.086 1.03.61 2.217.965 3.497.965l.144-.007c-.013.145-.013.29-.032.433-.283 2.455-1.096 4.81-1.916 7.35-.814 2.527-1.556 5.368-1.365 8.289a13.635 13.635 0 0 0 3.051 7.776c-.512-2.723-.8-5.263-.472-7.717.282-2.455 1.095-4.804 1.909-7.35.807-2.533 1.548-5.368 1.358-8.288-.02-.335-.059-.663-.098-.991.321-.132.623-.282.918-.46a202.712 202.712 0 0 0 5.525 5.086c3.524 3.15 7.139 6.215 11.01 9.023-2.808-3.872-5.866-7.487-9.022-11.011a203.766 203.766 0 0 0-5.084-5.526 6.816 6.816 0 0 0 .963-3.498l-.006-.144c.17.013.34.013.512.04 2.454.282 4.81 1.095 7.348 1.916 2.527.813 5.369 1.555 8.288 1.365a13.589 13.589 0 0 0 7.776-3.052c-2.73.505-5.269.794-7.724.473ZM63.253 61.87a4.713 4.713 0 0 1-2.218 2.337c-.085.046-.164.098-.256.137a4.862 4.862 0 0 1-1.607.355c-.073.006-.145.02-.224.02-.65 0-1.266-.132-1.83-.375a4.696 4.696 0 0 1-2.362-2.277c-.033-.065-.08-.124-.105-.197a4.677 4.677 0 0 1-.361-1.693l-.013-.138c0-.65.137-1.266.374-1.83a4.683 4.683 0 0 1 2.296-2.376c.06-.026.112-.066.17-.092a4.711 4.711 0 0 1 1.7-.36l.131-.014c.65 0 1.267.131 1.831.374a4.684 4.684 0 0 1 2.343 2.238c.039.079.092.15.124.23.217.498.328 1.05.355 1.614.006.072.02.144.02.216a4.497 4.497 0 0 1-.368 1.831Z" fill="#CE9040"/>
        <path d="M18.821 18.821c22.429-22.428 58.929-22.428 81.357 0 22.43 22.429 22.43 58.93 0 81.358-22.428 22.428-58.928 22.428-81.357 0-22.428-22.429-22.428-58.93 0-81.358Zm79.877 79.876c21.616-21.615 21.616-56.779 0-78.394-21.616-21.616-56.78-21.616-78.395 0-21.616 21.615-21.616 56.779 0 78.394 21.615 21.61 56.785 21.61 78.395 0Z" fill="#CE9040"/>
    </g>
</symbol><symbol id="icon-facebook" viewBox="0 0 7 15">
    <path d="M1.393 3.428v1.87H.022v2.284h1.371v6.79H4.21v-6.79H6.1s.177-1.095.262-2.293H4.22V3.726c0-.233.307-.547.61-.547h1.535V.8H4.28C1.323.8 1.393 3.087 1.393 3.428Z" fill-rule="nonzero"/>
</symbol><symbol id="icon-instagram" viewBox="0 0 15 15">
    <path d="M7.2 0C5.245 0 5 .008 4.231.043 3.465.078 2.941.2 2.484.378a3.53 3.53 0 0 0-1.276.83c-.4.4-.646.802-.83 1.276-.178.458-.3.981-.335 1.747C.008 5 0 5.245 0 7.2c0 1.955.008 2.2.043 2.969.035.766.157 1.29.335 1.747.184.474.43.875.83 1.276.4.4.802.646 1.276.83.458.178.981.3 1.747.335.768.035 1.014.043 2.969.043 1.955 0 2.2-.008 2.969-.043.766-.035 1.29-.157 1.747-.335a3.53 3.53 0 0 0 1.276-.83c.4-.4.646-.802.83-1.276.178-.458.3-.981.335-1.747.035-.768.043-1.014.043-2.969 0-1.955-.008-2.2-.043-2.969-.035-.766-.157-1.29-.335-1.747a3.53 3.53 0 0 0-.83-1.276 3.53 3.53 0 0 0-1.276-.83c-.458-.178-.981-.3-1.747-.335C9.4.008 9.155 0 7.2 0Zm0 1.297c1.922 0 2.15.008 2.91.042.701.032 1.083.15 1.336.248.336.13.576.287.828.539.252.252.408.492.539.828.098.253.216.635.248 1.337.034.759.042.987.042 2.909 0 1.922-.008 2.15-.042 2.91-.032.701-.15 1.083-.248 1.336a2.23 2.23 0 0 1-.539.828 2.23 2.23 0 0 1-.828.539c-.253.098-.635.216-1.337.248-.759.034-.986.042-2.909.042-1.923 0-2.15-.008-2.91-.042-.701-.032-1.083-.15-1.336-.248a2.23 2.23 0 0 1-.828-.539 2.23 2.23 0 0 1-.539-.828c-.098-.253-.216-.635-.248-1.337-.034-.759-.042-.987-.042-2.909 0-1.922.008-2.15.042-2.91.032-.701.15-1.083.248-1.336a2.23 2.23 0 0 1 .539-.828 2.23 2.23 0 0 1 .828-.539c.253-.098.635-.216 1.337-.248.759-.034.987-.042 2.909-.042Zm0 2.206a3.697 3.697 0 1 0 0 7.394 3.697 3.697 0 0 0 0-7.394Zm0 6.097a2.4 2.4 0 1 1 0-4.8 2.4 2.4 0 0 1 0 4.8Zm4.707-6.243a.864.864 0 1 1-1.728 0 .864.864 0 0 1 1.728 0Z" fill-rule="nonzero"/>
</symbol><symbol id="icon-linkedin" viewBox="0 0 40 40">
    <path d="M8.889 4.444a4.444 4.444 0 1 0-8.889 0 4.444 4.444 0 0 0 8.889 0Zm0 8.89V40H0V13.333h8.889ZM40 40h-8.889V25c0-2.356-2.644-4.311-5-4.311-2.355 0-3.889 1.955-3.889 4.311v15h-8.889V13.333h8.89v4.445c1.466-2.378 5.244-3.911 7.777-3.911 5.556 0 10 4.533 10 10.022V40Z" fill-rule="evenodd"/>
</symbol><symbol id="icon-pinterest" viewBox="0 0 13 16">
    <path d="M11.3 1.64C10.188.582 8.646 0 6.96 0 4.386 0 2.803 1.043 1.93 1.918.85 2.997.232 4.43.232 5.848c0 1.78.754 3.148 2.015 3.656.085.034.17.052.254.052.266 0 .477-.172.55-.449.043-.158.141-.55.184-.719.092-.335.018-.496-.183-.73-.364-.427-.534-.931-.534-1.588 0-1.952 1.47-4.026 4.193-4.026 2.161 0 3.504 1.214 3.504 3.17 0 1.233-.269 2.376-.757 3.217-.34.585-.936 1.281-1.852 1.281-.396 0-.751-.16-.976-.441a1.1 1.1 0 0 1-.196-.964c.096-.404.227-.824.354-1.23.232-.744.451-1.445.451-2.005 0-.957-.595-1.6-1.48-1.6-1.126 0-2.008 1.13-2.008 2.573 0 .708.19 1.237.277 1.44l-1.145 4.793c-.092.388-.649 3.46.273 3.704 1.035.275 1.96-2.716 2.055-3.053.076-.275.343-1.315.507-1.953.5.476 1.305.797 2.088.797 1.476 0 2.804-.656 3.738-1.85.907-1.156 1.406-2.768 1.406-4.54 0-1.384-.601-2.748-1.65-3.743Z" fill-rule="nonzero"/>
</symbol><symbol id="icon-twitter" viewBox="0 0 60 49">
    <path d="M53.848 12.313c.078.312.117.82.117 1.523 0 5.625-1.367 11.055-4.102 16.289-2.812 5.547-6.758 9.961-11.836 13.242-5.547 3.672-11.914 5.508-19.101 5.508-6.875 0-13.164-1.836-18.867-5.508.859.078 1.836.117 2.93.117 5.702 0 10.82-1.757 15.35-5.273-2.734 0-5.136-.8-7.206-2.402-2.07-1.602-3.496-3.614-4.278-6.036.782.079 1.524.118 2.227.118a15.62 15.62 0 0 0 3.281-.352c-2.812-.625-5.156-2.07-7.031-4.336C3.457 22.938 2.52 20.36 2.52 17.47v-.235c1.718 1.016 3.554 1.563 5.507 1.641a13.651 13.651 0 0 1-3.984-4.453c-1.016-1.797-1.523-3.77-1.523-5.918s.585-4.2 1.757-6.152c3.047 3.828 6.778 6.875 11.192 9.14 4.414 2.266 9.12 3.516 14.12 3.75a17.08 17.08 0 0 1-.234-2.812 12.2 12.2 0 0 1 1.641-6.153c1.094-1.914 2.578-3.418 4.453-4.511a11.885 11.885 0 0 1 6.094-1.64c1.797 0 3.457.35 4.98 1.054a13.917 13.917 0 0 1 4.043 2.812 25.035 25.035 0 0 0 7.852-2.93c-.938 2.891-2.735 5.157-5.39 6.797 2.343-.312 4.687-.976 7.03-1.992a27.048 27.048 0 0 1-6.21 6.446Z" fill-rule="evenodd"/>
</symbol><symbol id="icon-youtube" viewBox="0 0 21 15">
    <path d="M8.332 10.266V4.274l5.673 3.006-5.673 2.986Zm12.458-7.03s-.205-1.47-.835-2.117c-.798-.85-1.694-.854-2.104-.903C14.913 0 10.505 0 10.505 0h-.01S6.087 0 3.15.216c-.411.05-1.306.053-2.105.903C.414 1.766.21 3.236.21 3.236S0 4.962 0 6.687v1.618c0 1.727.21 3.452.21 3.452s.205 1.47.834 2.117c.8.85 1.849.823 2.316.911 1.68.164 7.14.215 7.14.215s4.413-.007 7.351-.223c.41-.05 1.306-.054 2.104-.903.63-.647.835-2.117.835-2.117s.21-1.725.21-3.452V6.687c0-1.725-.21-3.451-.21-3.451Z" fill-rule="nonzero"/>
</symbol></svg>