<?xml version="1.0" encoding="UTF-8"?>
<svg width="276px" height="120px" viewBox="0 0 276 120" version="1.1" xmlns="http://www.w3.org/2000/svg" xmlns:xlink="http://www.w3.org/1999/xlink">
    <title>Artboard Copy</title>
    <g id="Artboard-Copy" stroke="none" stroke-width="1" fill="none" fill-rule="evenodd">
        <g id="Group-3" transform="translate(22.000000, 34.000000)" fill="#28333A" fill-rule="nonzero">
            <g id="Group">
                <path d="M28.112,13.779882 L28.112,29.116 L22.6410025,29.116 L22.6410025,13.779882 C22.6410025,9.10071164 18.8225163,5.24150773 14.0560666,5.24150773 C9.34872639,5.24150773 5.47098416,9.10725045 5.47098416,13.779882 L5.47098416,29.116 L0,29.116 L0,0.562337406 L5.47098416,0.562337406 L5.47098416,3.30471308 C7.95300018,1.4333065 10.9419683,0 14.0560666,0 C17.8086387,0 21.3703931,1.37445724 24.0433068,3.9886723 C26.6504397,6.60942616 28.112,10.0436076 28.112,13.779882 Z" id="Path"></path>
                <path d="M39.156,16.30068 L39.156,0 L44.65572,0 L44.65572,16.30068 C44.65572,20.4671922 48.2361734,23.8925272 52.71,23.8925272 C57.1243933,23.8925272 60.76428,20.4737167 60.76428,16.30068 L60.76428,0 L66.264,0 L66.264,16.30068 C66.264,19.784735 64.7947665,23.0169464 62.2335135,25.4453458 C59.6723943,27.8724403 56.2904534,29.116 52.71,29.116 C49.0634204,29.116 45.6749204,27.8724403 43.1202264,25.4453458 C40.5656663,23.0169464 39.156,19.784735 39.156,16.30068 Z" id="Path"></path>
                <path d="M102.030153,0.633006318 L107.428,0.633006318 L107.428,29.4869937 L102.030153,29.4869937 L102.030153,26.1475219 C99.3345145,28.417887 95.9437482,30.12 92.3647155,30.12 C88.3504234,30.12 84.5829929,28.6068638 81.6989563,25.7695683 C78.8733834,22.874126 77.308,19.0906248 77.308,15.06 C77.308,11.0293752 78.879821,7.24719551 81.6989563,4.35043173 C84.5829929,1.51313619 88.3504234,0 92.3647155,0 C95.9437482,0 99.3279456,1.70343454 102.030153,3.97247806 L102.030153,0.633006318 Z M102.030153,15.0666076 C102.030153,9.71182345 97.6976608,5.303245 92.3647155,5.303245 C87.0319016,5.303245 82.6992777,9.71182345 82.6992777,15.0666076 C82.6992777,20.4213917 87.0319016,24.8299702 92.3647155,24.8299702 C97.6976608,24.8299702 102.030153,20.4213917 102.030153,15.0666076 Z" id="Shape"></path>
                <path d="M147.588,13.7805009 L147.588,29.116 L142.116574,29.116 L142.116574,13.7805009 C142.116574,9.10112042 138.297627,5.24043534 133.531933,5.24043534 C128.824563,5.24043534 124.946894,9.10765952 124.946894,13.7805009 L124.946894,29.116 L119.476,29.116 L119.476,0.561054844 L124.946894,0.561054844 L124.946894,3.30486152 C127.428943,1.43206306 130.417788,0 133.531933,0 C137.284301,0 140.846255,1.37451898 143.518718,3.98885146 C146.119277,6.60972304 147.588,10.0427509 147.588,13.7805009 Z" id="Path"></path>
                <path d="M184.736,23.9432327 C184.237802,24.576239 183.734373,25.2013163 183.172102,25.7695683 C180.359439,28.6068638 176.615761,30.12 172.614483,30.12 C168.611899,30.12 164.804147,28.6068638 161.998022,25.7695683 C159.186668,22.874126 157.628,19.0906248 157.628,15.06 C157.628,11.0293752 159.193206,7.24587399 161.998022,4.35043173 C164.810685,1.51313619 168.618437,0 172.614483,0 C176.609223,0 180.359439,1.51313619 183.172102,4.35043173 C183.734373,4.91868375 184.231264,5.48561425 184.671927,6.11862057 L180.359439,9.33386978 C178.607246,6.94060372 175.801122,5.303245 172.614483,5.303245 C167.306907,5.303245 162.994419,9.71182345 162.994419,15.0666076 C162.994419,20.4213917 167.306907,24.8299702 172.614483,24.8299702 C175.801122,24.8299702 178.607246,23.1926114 180.359439,20.7345911 L184.736,23.9432327 Z" id="Path"></path>
                <path d="M220.836209,16.2533781 L198.106878,16.2533781 L198.106878,16.3799893 C198.752667,21.2585618 202.419775,24.9222055 206.672003,24.988205 C209.311782,24.8615938 212.017622,23.7651945 213.884881,21.9037403 L218.524043,24.6622485 C217.363241,25.9458707 216.077057,27.0355353 214.59808,27.9393239 C212.345235,29.2889455 209.571984,29.9933888 206.805475,30.12 C202.938833,30.12 199.399804,28.5117682 196.827435,25.6266488 C194.50718,23.1200161 193.094265,19.9089402 192.834062,16.3799893 C192.768,15.9274215 192.768,15.4815884 192.768,15.0303676 C192.768,13.8733566 192.894731,12.7163456 193.153586,11.5606815 C193.733312,8.86143815 195.020845,6.42215186 196.827435,4.4340864 C199.399804,1.60823182 203.006243,0 206.805475,0 C210.672117,0 214.211146,1.60823182 216.850925,4.4340864 C218.657515,6.42215186 220.00302,8.86817279 220.523426,11.5606815 C220.96294,14.1993131 220.896878,15.675546 220.836209,16.2533781 Z M215.037594,11.6334156 L214.971532,11.5068044 C213.683999,7.71789643 210.398432,5.15199893 206.791993,5.15199893 C203.252964,5.15199893 199.966048,7.71789643 198.613802,11.5068044 L198.546392,11.6334156 L215.037594,11.6334156 Z" id="Shape"></path>
                <path d="M251,21.1876205 C251,22.857136 250.554581,24.4660153 249.610718,25.8161804 C248.726508,27.1663455 247.460511,28.1904228 245.750421,29.0285492 C244.229899,29.7332761 242.393873,30.12 240.559171,30.12 C239.550351,30.12 238.599859,29.9933378 237.583084,29.8006496 C234.417429,29.1552114 231.442668,27.7457576 228.912,25.5574661 L232.333506,21.7670326 C235.690054,24.660051 238.540205,25.2381157 240.309949,25.2381157 C241.509663,25.2381157 242.649723,24.978054 243.666498,24.5333888 C244.492378,24.1480123 245.946618,23.1832237 245.946618,21.1943578 C245.946618,19.200102 244.236528,17.9833365 240.309949,17.2772621 C240.120381,17.2112361 235.309593,16.313821 233.53322,15.2897437 C230.872638,13.7468904 229.483356,11.372648 229.483356,8.41360354 C229.483356,6.80337673 229.987103,5.26726077 230.872638,3.91709569 C231.698519,2.76096631 232.838579,1.86220373 234.483712,1.09145081 C236.004234,0.38672393 237.649367,0 239.484068,0 C240.178709,0 240.939633,0.0673735069 241.634274,0.126662193 C244.419468,0.579412159 247.139704,1.79617769 249.421149,3.65838143 L246.255494,7.38278889 C243.404019,5.13386123 240.939633,4.81585827 239.733291,4.81585827 C238.593231,4.81585827 237.518127,5.0085465 236.633918,5.459949 C235.367921,6.1053872 234.542041,7.25612669 234.542041,8.41360354 C234.542041,10.3418333 236.062562,11.3659106 239.924184,12.204037 C239.989141,12.204037 245.180391,13.3601664 246.634631,14.1982928 C248.346046,15.0970554 248.974405,15.8085197 249.675674,16.7059348 C250.554581,17.9765991 251,19.5127151 251,21.1876205 Z" id="Path"></path>
                <path d="M1.004,46.3578698 L14.056,46.3578698 L14.056,48.8861719 L3.61057165,48.8861719 L3.61057165,53.7898229 L12.71765,53.7898229 L12.71765,56.403099 L3.61057165,56.403099 L3.61057165,64.6808698 L13.7947183,64.6808698 L13.7947183,67.268 L1.004,67.268 L1.004,46.3578698 Z M8.83646323,41.164 L10.8057434,41.164 L8.39673143,44.3054219 L7.35155311,44.3054219 L8.83646323,41.164 Z" id="Shape"></path>
                <polygon id="Path" points="25.9709353 46.184 32.63 63.4492849 39.3150772 46.184 42.168 46.184 34.0270158 67.268 31.2654668 67.268 23.092 46.184"></polygon>
                <path d="M52.208,46.3578698 L65.26,46.3578698 L65.26,48.8861719 L54.8209522,48.8861719 L54.8209522,53.7898229 L63.9280659,53.7898229 L63.9280659,56.403099 L54.8209522,56.403099 L54.8209522,64.6808698 L65.0050338,64.6808698 L65.0050338,67.268 L52.208,67.268 L52.208,46.3578698 Z M60.0404117,41.164 L62.0097612,41.164 L59.6007303,44.3054219 L58.5554721,44.3054219 L60.0404117,41.164 Z" id="Shape"></path>
                <polygon id="Path" points="78.0060555 50.5945698 78.0060555 67.268 75.3 67.268 75.3 46.184 78.2436747 46.184 89.6619445 62.8574302 89.6619445 46.184 92.368 46.184 92.368 67.268 89.4507571 67.268"></polygon>
                <polygon id="Path" points="104.416 46.184 117.468 46.184 117.468 48.7333252 107.028952 48.7333252 107.028952 53.6777505 116.135937 53.6777505 116.135937 56.3127562 107.028952 56.3127562 107.028952 64.6593575 117.213034 64.6593575 117.213034 67.268 104.416 67.268"></polygon>
                <polygon id="Path" points="144.898439 67.268 144.898439 50.4508902 138.037506 59.6305698 131.202098 50.4508902 131.202098 67.268 128.512 67.268 128.512 46.184 131.354847 46.184 138.037506 55.187046 144.718418 46.184 147.588 46.184 147.588 67.268"></polygon>
                <polygon id="Path" points="159.636 46.184 172.688 46.184 172.688 48.7333252 162.242275 48.7333252 162.242275 53.6777505 171.348771 53.6777505 171.348771 56.3127562 162.242275 56.3127562 162.242275 64.6593575 172.426341 64.6593575 172.426341 67.268 159.636 67.268"></polygon>
                <polygon id="Path" points="185.434049 50.5945698 185.434049 67.268 182.728 67.268 182.728 46.184 185.671679 46.184 197.089951 62.8574302 197.089951 46.184 199.796 46.184 199.796 67.268 196.879021 67.268"></polygon>
                <polygon id="Path" points="215.50826 48.7926425 209.836 48.7926425 209.836 46.184 223.892 46.184 223.892 48.7926425 218.2184 48.7926425 218.2184 67.268 215.501559 67.268 215.501559 48.7926425"></polygon>
                <path d="M238.374749,68.0375078 C236.122192,67.5841009 233.903437,66.4553206 231.924,64.7513225 L233.722259,62.7143749 C235.333932,64.1097855 237.132192,65.0517892 238.923691,65.4199286 C240.447479,65.7528782 241.938818,65.6337742 243.121883,65.0856255 C243.910143,64.7174862 245.281146,63.8093188 245.281146,61.9523805 C245.281146,59.6745181 242.847412,58.8529718 240.474521,58.3927976 C240.260893,58.3657285 236.85096,57.6646396 235.486717,56.8688089 C233.662768,55.7738649 232.68657,54.1307723 232.68657,52.1263075 C232.68657,51.0042945 233.054334,49.9364196 233.688458,48.9944159 C234.330693,48.1458005 235.213598,47.4447116 236.242527,46.9561148 C237.766315,46.2279568 239.557814,46.0154646 241.383115,46.3159313 C243.362552,46.6488809 245.367679,47.5908846 247.132137,49.0539679 L245.401481,51.1518209 C242.26602,48.5667246 239.223852,48.5058192 237.398551,49.3544346 C236.149234,49.9364196 235.420465,50.9975272 235.420465,52.0938246 C235.420465,54.1646086 237.184923,54.9523186 239.986422,55.5600192 C241.142446,55.8334169 243.549139,56.2286253 244.972873,57.0501716 C246.952311,58.1451156 247.988,59.8491136 247.988,61.9456132 C247.988,63.1948509 247.654038,64.3507002 246.952311,65.3522559 C246.310075,66.2671905 245.340638,66.9628657 244.244105,67.5096609 C243.088081,68.0916459 241.905016,68.2716553 240.561053,68.2716553 C239.839046,68.2784225 239.110277,68.1850342 238.374749,68.0375078 Z" id="Path"></path>
            </g>
        </g>
    </g>
</svg>